<svg xmlns="http://www.w3.org/2000/svg" xmlns:xlink="http://www.w3.org/1999/xlink" version="1.1" id="imgView" x="0px" y="0px" width="256px" height="256px" viewBox="0 0 464.551 464.551" style="enable-background:new 0 0 464.551 464.551; fill: red;" xml:space="preserve" class="detail convertSvgInline replaced-svg" data-id="32185" data-kw="flag30">
<g>
	<path d="M133.391,35.352c0,12.005-5.999,22.597-15.143,28.986v380.015c0,11.153-9.043,20.197-20.197,20.197   c-11.157,0-20.2-9.044-20.2-20.197V64.333c-9.144-6.389-15.143-16.976-15.143-28.986C62.708,15.82,78.537,0,98.057,0   C117.562,0.006,133.391,15.829,133.391,35.352z M134.23,63.121c0,52.18,0,104.354,0,156.528c101.79,37.587,165.83-37.586,267.613,0   c0-52.18,0-104.354,0-156.528C300.06,25.534,236.02,100.71,134.23,63.121z"></path>
</g>
<g>
</g>
<g>
</g>
<g>
</g>
<g>
</g>
<g>
</g>
<g>
</g>
<g>
</g>
<g>
</g>
<g>
</g>
<g>
</g>
<g>
</g>
<g>
</g>
<g>
</g>
<g>
</g>
<g>
</g>
</svg>